<svg xmlns="http://www.w3.org/2000/svg" viewBox="0 0 256 256">
  <rect width="256" height="256" fill="#CCFF00"/>
  <g fill="#1C180D">
    <path d="M64 114 Q64 110 68 107 L82 96 Q86 93 86 98 L86 154 Q86 158 82 161 L68 172 Q64 175 64 170 Z"/>
    <path d="M96 86 Q96 82 100 79 L114 69 Q118 66 118 71 L118 188 Q118 192 114 195 L100 206 Q96 209 96 204 Z"/>
    <path d="M118 118 Q118 114 121 112 L137 100 Q140 98 140 102 L140 111 Q140 115 136 118 L122 129 Q118 132 118 127 Z"/>
    <path d="M140 59 Q140 55 144 52 L158 41 Q162 38 162 43 L162 162 Q162 166 158 169 L144 180 Q140 183 140 178 Z"/>
    <path d="M176 102 Q176 98 180 95 L194 84 Q198 81 198 86 L198 131 Q198 135 194 138 L180 149 Q176 152 176 147 Z"/>
  </g>
</svg>
